<svg xmlns="http://www.w3.org/2000/svg" width="14.035" height="20.354" viewBox="0 0 14.035 20.354"><defs><style>.a{fill:#9b9b9b;}</style></defs><g transform="translate(0 0)"><path class="a" d="M80.609,5.066a6.338,6.338,0,0,0-.329-.814A6.981,6.981,0,0,0,66.9,6.314v.869c0,.036.013.362.03.525.254,2.026,1.854,4.18,3.049,6.206,1.286,2.171,2.62,4.306,3.942,6.441.815-1.393,1.627-2.8,2.424-4.161.217-.4.469-.8.686-1.176.145-.253.422-.506.548-.742,1.286-2.352,3.356-4.722,3.356-7.056V6.26A7.218,7.218,0,0,0,80.609,5.066Zm-6.725,4.36a2.491,2.491,0,0,1-2.385-1.7,2.357,2.357,0,0,1-.067-.634V6.531a2.358,2.358,0,0,1,2.53-2.316,2.564,2.564,0,0,1,2.57,2.606A2.63,2.63,0,0,1,73.884,9.426Z" transform="translate(-66.905)"/></g></svg>