<svg id="Camada_1" data-name="Camada 1" xmlns="http://www.w3.org/2000/svg" viewBox="0 0 255.25 178.73"><defs><style>.cls-1{fill:#4ddd4d;}.cls-2{fill:#347fea;}.cls-3{fill:#61cc29;opacity:0.7;}</style></defs><title>LogoSVGdeitado</title><path class="cls-1" d="M329.32,277.28A4.47,4.47,0,0,0,326,276a4.36,4.36,0,0,0-3.26,1.32,4.61,4.61,0,0,0-1.3,3.4,4.72,4.72,0,0,0,1.3,3.4,4.33,4.33,0,0,0,3.26,1.33,4.47,4.47,0,0,0,3.34-1.32,5.17,5.17,0,0,0,0-6.81Z" transform="translate(-112.38 -150.64)"/><path d="M142.18,304.45c0-4.92-1.23-8.74-3.71-11.49s-6.09-4.13-10.87-4.13a16.3,16.3,0,0,0-7.92,1.89,13.66,13.66,0,0,0-5.39,5.35,17.39,17.39,0,0,0,0,15.81,13.13,13.13,0,0,0,5.38,5.27,17.06,17.06,0,0,0,8.18,1.88,18.27,18.27,0,0,0,7.18-1.36,14.81,14.81,0,0,0,5.46-3.88L136,309.28a10.71,10.71,0,0,1-3.48,2.35,10.54,10.54,0,0,1-4,.79,7.76,7.76,0,0,1-4.89-1.57,7.62,7.62,0,0,1-2.75-4.37h21.23C142.16,306,142.18,305.33,142.18,304.45Zm-21.45-3a8,8,0,0,1,2.34-4.69,7,7,0,0,1,9.27,0,6.68,6.68,0,0,1,1.87,4.67Z" transform="translate(-112.38 -150.64)"/><polygon points="61.54 168.06 51.8 168.06 45.86 158.38 39.37 168.06 30.02 168.06 40.25 152.93 30.74 138.47 40.42 138.47 45.86 147.43 51.64 138.47 60.88 138.47 51.47 152.88 61.54 168.06"/><path d="M204.28,304.45c0-4.92-1.25-8.74-3.71-11.49s-6.1-4.13-10.87-4.13a16.24,16.24,0,0,0-7.92,1.89,13.53,13.53,0,0,0-5.39,5.35,17.35,17.35,0,0,0,0,15.81,13.12,13.12,0,0,0,5.4,5.27,17,17,0,0,0,8.15,1.88,18.16,18.16,0,0,0,7.18-1.36,14.8,14.8,0,0,0,5.48-3.88l-4.46-4.51a10.35,10.35,0,0,1-7.47,3.14,7.53,7.53,0,0,1-7.66-5.94h21.24C204.26,306,204.28,305.33,204.28,304.45Zm-21.45-3a7.92,7.92,0,0,1,2.33-4.69,6.48,6.48,0,0,1,4.6-1.74,6.32,6.32,0,0,1,4.66,1.76,6.64,6.64,0,0,1,1.87,4.67Z" transform="translate(-112.38 -150.64)"/><path d="M259.65,300.1v18.6h-8.41V302.58a6.18,6.18,0,0,0-1.53-4.45,5.59,5.59,0,0,0-4.18-1.6,6.14,6.14,0,0,0-4.8,2.14,8.17,8.17,0,0,0-1.76,5.4V318.7h-8.4V302.58a6.28,6.28,0,0,0-1.52-4.43,5.45,5.45,0,0,0-4.15-1.62,6.19,6.19,0,0,0-4.81,2.14,8,8,0,0,0-1.8,5.4V318.7h-8.46V289.1h8.46v5.11c2.06-3.55,5.39-5.37,10-5.43a10.93,10.93,0,0,1,6.34,1.79,9.72,9.72,0,0,1,3.68,5,10.72,10.72,0,0,1,4.15-5.06,12.45,12.45,0,0,1,6.51-1.75,10.22,10.22,0,0,1,7.8,3.05A11.56,11.56,0,0,1,259.65,300.1Z" transform="translate(-112.38 -150.64)"/><path d="M297.24,296.09a12.67,12.67,0,0,0-4.89-5.37,13.91,13.91,0,0,0-7.28-1.89,11.76,11.76,0,0,0-5.36,1.19,10.37,10.37,0,0,0-4,3.43V289.1h-8.48v40.26h8.48v-15a11,11,0,0,0,4,3.44,12,12,0,0,0,5.47,1.19,13.75,13.75,0,0,0,7.24-1.88,12.67,12.67,0,0,0,4.81-5.25,17.26,17.26,0,0,0,1.7-7.83A17.52,17.52,0,0,0,297.24,296.09Zm-8.88,13.62a6.72,6.72,0,0,1-5.27,2.27,6.84,6.84,0,0,1-5.31-2.26,9.46,9.46,0,0,1,0-11.79,6.82,6.82,0,0,1,5.31-2.28,6.69,6.69,0,0,1,5.27,2.28,8.46,8.46,0,0,1,2,5.85A8.58,8.58,0,0,1,288.36,309.71Z" transform="translate(-112.38 -150.64)"/><rect x="192.49" y="127.25" width="8.47" height="40.81"/><rect x="209.43" y="138.47" width="8.47" height="29.59"/><path d="M365.65,296a13.57,13.57,0,0,0-5.6-5.27,19.35,19.35,0,0,0-16.6,0,13.55,13.55,0,0,0-5.59,5.27,16.87,16.87,0,0,0,0,15.82,13.58,13.58,0,0,0,5.59,5.34,19.08,19.08,0,0,0,16.6,0,13.61,13.61,0,0,0,5.6-5.34,16.79,16.79,0,0,0,0-15.82Zm-8.56,13.93a6.86,6.86,0,0,1-5.31,2.25,7,7,0,0,1-5.37-2.25,9.44,9.44,0,0,1,0-11.77,7,7,0,0,1,5.37-2.27,6.88,6.88,0,0,1,5.31,2.27,9.44,9.44,0,0,1,0,11.77Z" transform="translate(-112.38 -150.64)"/><rect class="cls-2" x="94.13" width="82" height="82" rx="16.5"/><rect class="cls-3" x="79.13" y="17" width="82" height="82" rx="16.5"/></svg>