<?xml version="1.0" encoding="utf-8"?>
<!-- Generator: Adobe Illustrator 23.0.1, SVG Export Plug-In . SVG Version: 6.00 Build 0)  -->
<svg version="1.1" id="Camada_1" xmlns="http://www.w3.org/2000/svg" xmlns:xlink="http://www.w3.org/1999/xlink" x="0px" y="0px"
	 viewBox="0 0 480 480" style="enable-background:new 0 0 480 480;" xml:space="preserve">
<style type="text/css">
	.st0{fill:#347FEA;}
	.st1{opacity:0.7;fill:#61CC29;}
	.st2{fill:#4DDD4D;}
</style>
<g>
	<g>
		<path class="st0" d="M336,41H189c-27.34,0-49.5,22.16-49.5,49.5v147c0,27.34,22.16,49.5,49.5,49.5h147
			c27.34,0,49.5-22.16,49.5-49.5v-147C385.5,63.16,363.34,41,336,41z"/>
		<path class="st1" d="M291,92H144c-27.34,0-49.5,22.16-49.5,49.5v147c0,27.34,22.16,49.5,49.5,49.5h147
			c27.34,0,49.5-22.16,49.5-49.5v-147C340.5,114.16,318.34,92,291,92z"/>
	</g>
	<g>
		<g>
			<g>
				<path class="st2" d="M370.82,378.84c-1.26-1.29-2.89-1.93-4.88-1.93c-1.93,0-3.53,0.64-4.79,1.93
					c-1.26,1.29-1.89,2.96-1.89,4.99c0,1.99,0.63,3.65,1.89,4.97c1.26,1.32,2.86,1.96,4.79,1.96c1.99,0,3.62-0.64,4.88-1.93
					c1.26-1.29,1.89-2.94,1.89-4.99C372.71,381.8,372.08,380.13,370.82,378.84z"/>
			</g>
		</g>
		<g>
			<g>
				<path d="M96.73,418.64c0-7.19-1.82-12.8-5.45-16.83c-3.62-4.03-8.92-6.05-15.91-6.05c-4.35,0-8.22,0.94-11.6,2.78
					c-3.38,1.86-6.02,4.47-7.89,7.82c-1.87,3.35-2.81,7.24-2.81,11.63c0,4.35,0.92,8.2,2.77,11.53c1.86,3.32,4.48,5.9,7.89,7.73
					c3.41,1.83,7.4,2.74,11.97,2.74c3.87,0,7.37-0.66,10.52-1.98c3.13-1.32,5.81-3.21,8.01-5.68l-6.52-6.61
					c-1.51,1.51-3.21,2.65-5.08,3.43c-1.87,0.78-3.84,1.17-5.87,1.17c-2.8,0-5.19-0.76-7.18-2.3c-1.99-1.52-3.32-3.66-4.03-6.4h31.1
					C96.7,420.92,96.73,419.93,96.73,418.64z M65.31,414.29c0.48-2.9,1.61-5.19,3.41-6.88c1.8-1.68,4.04-2.53,6.74-2.53
					c2.84,0,5.13,0.86,6.84,2.58c1.71,1.71,2.64,4,2.74,6.84H65.31z"/>
				<polygon points="143.2,439.51 128.94,439.51 120.24,425.33 110.73,439.51 97.04,439.51 112.02,417.35 98.09,396.17 
					112.27,396.17 120.24,409.29 128.7,396.17 142.24,396.17 128.45,417.28 				"/>
				<path d="M187.67,418.64c0-7.19-1.82-12.8-5.43-16.83c-3.63-4.03-8.93-6.05-15.92-6.05c-4.35,0-8.22,0.94-11.6,2.78
					c-3.38,1.86-6.01,4.47-7.89,7.82c-1.87,3.35-2.81,7.24-2.81,11.63c0,4.35,0.92,8.2,2.78,11.53c1.85,3.32,4.48,5.9,7.89,7.73
					c3.41,1.83,7.4,2.74,11.95,2.74c3.87,0,7.38-0.66,10.52-1.98c3.15-1.32,5.81-3.21,8.01-5.68l-6.52-6.61
					c-1.51,1.51-3.19,2.65-5.08,3.43c-1.87,0.78-3.84,1.17-5.87,1.17c-2.8,0-5.19-0.76-7.18-2.3c-1.98-1.52-3.32-3.66-4.03-6.4h31.1
					C187.64,420.92,187.67,419.93,187.67,418.64z M156.25,414.29c0.48-2.9,1.63-5.19,3.43-6.88c1.79-1.68,4.04-2.53,6.72-2.53
					c2.84,0,5.13,0.86,6.84,2.58c1.73,1.71,2.64,4,2.74,6.84H156.25z"/>
				<path d="M268.79,412.28v27.23h-12.32V415.9c0-2.78-0.76-4.97-2.26-6.52c-1.51-1.55-3.54-2.34-6.12-2.34
					c-2.96,0.06-5.29,1.11-7.02,3.15c-1.71,2.04-2.58,4.67-2.58,7.89v21.43h-12.32V415.9c0-2.74-0.75-4.89-2.21-6.47
					c-1.48-1.58-3.52-2.39-6.09-2.39c-2.94,0.06-5.3,1.11-7.05,3.15c-1.74,2.04-2.62,4.67-2.62,7.89v21.43H195.8v-43.34h12.41v7.48
					c3.02-5.2,7.89-7.87,14.66-7.97c3.66,0,6.74,0.88,9.27,2.62c2.52,1.74,4.32,4.2,5.39,7.37c1.41-3.28,3.43-5.74,6.09-7.41
					c2.65-1.67,5.83-2.52,9.54-2.58c4.79,0,8.58,1.49,11.41,4.47C267.38,403.14,268.79,407.19,268.79,412.28z"/>
				<path d="M323.85,406.39c-1.68-3.38-4.07-5.99-7.16-7.85c-3.09-1.85-6.65-2.78-10.68-2.78c-2.9,0-5.51,0.59-7.85,1.74
					c-2.34,1.16-4.28,2.83-5.84,5.02v-6.36h-12.41v58.97h12.41v-21.91c1.61,2.2,3.59,3.88,5.92,5.04c2.34,1.16,5.01,1.73,8.03,1.73
					c4.03,0,7.56-0.91,10.59-2.74c3.03-1.83,5.39-4.39,7.05-7.69c1.67-3.31,2.5-7.13,2.5-11.48
					C326.4,413.67,325.55,409.78,323.85,406.39z M310.84,426.34c-1.98,2.23-4.56,3.34-7.73,3.34c-3.16,0-5.76-1.1-7.78-3.31
					c-2.01-2.2-3.02-5.1-3.02-8.7c0-3.49,1.01-6.34,3.02-8.57c2.02-2.23,4.61-3.35,7.78-3.35c3.18,0,5.76,1.13,7.73,3.35
					c1.99,2.23,2.99,5.08,2.99,8.57C313.83,421.22,312.83,424.12,310.84,426.34z"/>
				<rect x="335.01" y="379.74" width="12.41" height="59.78"/>
				<rect x="359.82" y="396.17" width="12.41" height="43.34"/>
				<path d="M424.03,406.23c-1.93-3.32-4.67-5.9-8.19-7.73c-3.52-1.82-7.56-2.74-12.11-2.74c-4.63,0-8.7,0.92-12.22,2.74
					c-3.52,1.83-6.24,4.41-8.17,7.73c-1.93,3.34-2.9,7.21-2.9,11.6c0,4.35,0.97,8.22,2.9,11.57c1.93,3.35,4.66,5.96,8.17,7.81
					c3.52,1.86,7.59,2.78,12.22,2.78c4.56,0,8.6-0.92,12.11-2.78c3.52-1.85,6.25-4.45,8.19-7.81c1.93-3.35,2.9-7.22,2.9-11.57
					C426.93,413.44,425.97,409.57,424.03,406.23z M411.5,426.62c-2.01,2.2-4.6,3.3-7.76,3.3c-3.22,0-5.84-1.1-7.87-3.3
					c-2.01-2.2-3.02-5.08-3.02-8.63c0-3.54,1.01-6.42,3.02-8.61c2.02-2.2,4.64-3.31,7.87-3.31c3.16,0,5.76,1.11,7.76,3.31
					c2.02,2.2,3.03,5.07,3.03,8.61C414.53,421.54,413.52,424.43,411.5,426.62z"/>
			</g>
		</g>
	</g>
</g>
</svg>
