<?xml version="1.0" encoding="utf-8"?>
<!-- Generator: Adobe Illustrator 23.0.1, SVG Export Plug-In . SVG Version: 6.00 Build 0)  -->
<svg version="1.1" id="Layer_1" xmlns="http://www.w3.org/2000/svg" xmlns:xlink="http://www.w3.org/1999/xlink" x="0px" y="0px"
	 viewBox="0 0 391.9 99" style="enable-background:new 0 0 391.9 99;" xml:space="preserve">
<style type="text/css">
	.st0{fill:#4DDD4D;}
	.st1{fill:#347FEA;}
	.st2{opacity:0.7;fill:#61CC29;enable-background:new    ;}
</style>
<g>
	<g>
		<g>
			<path class="st0" d="M352.6,19.6c-0.9-0.9-2-1.3-3.3-1.3c-1.3,0-2.4,0.4-3.3,1.3s-1.3,2-1.3,3.4c0,1.4,0.4,2.5,1.3,3.4
				c0.9,0.9,2,1.3,3.3,1.3c1.4,0,2.5-0.4,3.3-1.3s1.3-2,1.3-3.4C353.9,21.7,353.4,20.5,352.6,19.6z"/>
		</g>
	</g>
	<g>
		<g>
			<path d="M165.4,46.8c0-4.9-1.2-8.7-3.7-11.5c-2.5-2.8-6.1-4.1-10.9-4.1c-3,0-5.6,0.6-7.9,1.9c-2.3,1.3-4.1,3.1-5.4,5.3
				s-1.9,4.9-1.9,7.9c0,3,0.6,5.6,1.9,7.9c1.3,2.3,3.1,4,5.4,5.3s5.1,1.9,8.2,1.9c2.6,0,5-0.4,7.2-1.3c2.1-0.9,4-2.2,5.5-3.9
				l-4.4-4.5c-1,1-2.2,1.8-3.5,2.3s-2.6,0.8-4,0.8c-1.9,0-3.5-0.5-4.9-1.6c-1.4-1-2.3-2.5-2.8-4.4h21.2
				C165.4,48.4,165.4,47.7,165.4,46.8z M144,43.8c0.3-2,1.1-3.5,2.3-4.7c1.2-1.2,2.8-1.7,4.6-1.7c1.9,0,3.5,0.6,4.7,1.8
				c1.2,1.2,1.8,2.7,1.9,4.7H144z"/>
			<polygon points="197.2,61.1 187.4,61.1 181.5,51.4 175,61.1 165.7,61.1 175.9,45.9 166.4,31.5 176.1,31.5 181.5,40.4 187.3,31.5 
				196.5,31.5 187.1,45.9 			"/>
			<path d="M227.5,46.8c0-4.9-1.2-8.7-3.7-11.5c-2.5-2.8-6.1-4.1-10.9-4.1c-3,0-5.6,0.6-7.9,1.9c-2.3,1.3-4.1,3.1-5.4,5.3
				c-1.3,2.3-1.9,4.9-1.9,7.9c0,3,0.6,5.6,1.9,7.9c1.3,2.3,3.1,4,5.4,5.3s5,1.9,8.2,1.9c2.6,0,5-0.4,7.2-1.3c2.1-0.9,4-2.2,5.5-3.9
				l-4.5-4.5c-1,1-2.2,1.8-3.5,2.3c-1.3,0.5-2.6,0.8-4,0.8c-1.9,0-3.5-0.5-4.9-1.6c-1.4-1-2.3-2.5-2.8-4.4h21.2
				C227.5,48.4,227.5,47.7,227.5,46.8z M206.1,43.8c0.3-2,1.1-3.5,2.3-4.7c1.2-1.2,2.8-1.7,4.6-1.7c1.9,0,3.5,0.6,4.7,1.8
				c1.2,1.2,1.8,2.7,1.9,4.7H206.1z"/>
			<path d="M282.9,42.5v18.6h-8.4V44.9c0-1.9-0.5-3.4-1.5-4.4c-1-1.1-2.4-1.6-4.2-1.6c-2,0-3.6,0.8-4.8,2.2
				c-1.2,1.4-1.8,3.2-1.8,5.4v14.6h-8.4V44.9c0-1.9-0.5-3.3-1.5-4.4c-1-1.1-2.4-1.6-4.2-1.6c-2,0-3.6,0.8-4.8,2.2s-1.8,3.2-1.8,5.4
				v14.6h-8.5V31.5h8.5v5.1c2.1-3.6,5.4-5.4,10-5.4c2.5,0,4.6,0.6,6.3,1.8c1.7,1.2,3,2.9,3.7,5c1-2.2,2.3-3.9,4.2-5.1
				c1.8-1.1,4-1.7,6.5-1.8c3.3,0,5.9,1,7.8,3.1C282,36.2,282.9,39,282.9,42.5z"/>
			<path d="M320.5,38.4c-1.1-2.3-2.8-4.1-4.9-5.4c-2.1-1.3-4.5-1.9-7.3-1.9c-2,0-3.8,0.4-5.4,1.2c-1.6,0.8-2.9,1.9-4,3.4v-4.3h-8.5
				v40.3h8.5v-15c1.1,1.5,2.5,2.7,4,3.4c1.6,0.8,3.4,1.2,5.5,1.2c2.8,0,5.2-0.6,7.2-1.9s3.7-3,4.8-5.3c1.1-2.3,1.7-4.9,1.7-7.8
				C322.2,43.4,321.7,40.8,320.5,38.4z M311.6,52.1c-1.4,1.5-3.1,2.3-5.3,2.3c-2.2,0-3.9-0.8-5.3-2.3c-1.4-1.5-2.1-3.5-2.1-5.9
				c0-2.4,0.7-4.3,2.1-5.8c1.4-1.5,3.1-2.3,5.3-2.3c2.2,0,3.9,0.8,5.3,2.3c1.4,1.5,2,3.5,2,5.8C313.7,48.6,313,50.6,311.6,52.1z"/>
			<rect x="328.1" y="20.3" width="8.5" height="40.8"/>
			<rect x="345.1" y="31.5" width="8.5" height="29.6"/>
			<path d="M389.9,38.3c-1.3-2.3-3.2-4-5.6-5.3c-2.4-1.2-5.2-1.9-8.3-1.9c-3.2,0-5.9,0.6-8.3,1.9c-2.4,1.3-5.3,3-6.6,5.3
				c-1.3,2.3-2,4.9-2,7.9c0,3,0.7,5.6,2,7.9s4.2,4.1,6.6,5.3c2.4,1.3,5.2,1.9,8.3,1.9c3.1,0,5.9-0.6,8.3-1.9c2.4-1.3,4.3-3,5.6-5.3
				s2-4.9,2-7.9C391.9,43.3,391.2,40.6,389.9,38.3z M381.3,52.3c-1.4,1.5-3.1,2.3-5.3,2.3c-2.2,0-4-0.8-5.4-2.3
				c-1.4-1.5-2.1-3.5-2.1-5.9s0.7-4.4,2.1-5.9c1.4-1.5,3.2-2.3,5.4-2.3c2.2,0,3.9,0.8,5.3,2.3c1.4,1.5,2.1,3.5,2.1,5.9
				S382.7,50.8,381.3,52.3z"/>
		</g>
	</g>
</g>
<path class="st1" d="M80.7,0h-49c-9.1,0-16.5,7.4-16.5,16.5v49c0,9.1,7.4,16.5,16.5,16.5h49c9.1,0,16.5-7.4,16.5-16.5v-49
	C97.2,7.4,89.8,0,80.7,0z"/>
<path class="st2" d="M65.7,17h-49C7.6,17,0.2,24.4,0.2,33.5v49C0.2,91.6,7.6,99,16.7,99h49c9.1,0,16.5-7.4,16.5-16.5v-49
	C82.2,24.4,74.8,17,65.7,17z"/>
</svg>
