<?xml version="1.0" encoding="utf-8"?>
<!-- Generator: Adobe Illustrator 23.0.1, SVG Export Plug-In . SVG Version: 6.00 Build 0)  -->
<svg version="1.1" id="Layer_1" xmlns="http://www.w3.org/2000/svg" xmlns:xlink="http://www.w3.org/1999/xlink" x="0px" y="0px"
	 viewBox="0 0 491.43 173.92" style="enable-background:new 0 0 491.43 173.92;" xml:space="preserve">
<style type="text/css">
	.st0{fill:#4DDD4D;}
	.st1{fill:#347FEA;}
	.st2{opacity:0.7;fill:#61CC29;}
</style>
<g>
	<g>
		<g>
			<path class="st0" d="M399.38,55.64c-0.86-0.88-1.97-1.32-3.33-1.32c-1.32,0-2.41,0.44-3.27,1.32c-0.86,0.88-1.29,2.02-1.29,3.41
				c0,1.36,0.43,2.49,1.29,3.39c0.86,0.9,1.95,1.34,3.27,1.34c1.36,0,2.47-0.44,3.33-1.32s1.29-2.01,1.29-3.41
				C400.67,57.66,400.24,56.52,399.38,55.64z"/>
		</g>
	</g>
	<g>
		<g>
			<path d="M212.25,82.81c0-4.91-1.24-8.74-3.72-11.49c-2.47-2.75-6.09-4.13-10.86-4.13c-2.97,0-5.61,0.64-7.92,1.9
				c-2.31,1.27-4.11,3.05-5.39,5.34c-1.28,2.29-1.92,4.94-1.92,7.94c0,2.97,0.63,5.6,1.89,7.87c1.27,2.27,3.06,4.03,5.39,5.28
				c2.33,1.25,5.05,1.87,8.17,1.87c2.64,0,5.03-0.45,7.18-1.35c2.14-0.9,3.97-2.19,5.47-3.88l-4.45-4.51
				c-1.03,1.03-2.19,1.81-3.47,2.34c-1.28,0.53-2.62,0.8-4.01,0.8c-1.91,0-3.54-0.52-4.9-1.57c-1.36-1.04-2.27-2.5-2.75-4.37h21.23
				C212.23,84.37,212.25,83.69,212.25,82.81z M190.8,79.84c0.33-1.98,1.1-3.54,2.33-4.7c1.23-1.15,2.76-1.73,4.6-1.73
				c1.94,0,3.5,0.59,4.67,1.76c1.17,1.17,1.8,2.73,1.87,4.67H190.8z"/>
			<polygon points="243.98,97.06 234.24,97.06 228.3,87.38 221.81,97.06 212.46,97.06 222.69,81.93 213.18,67.47 222.86,67.47 
				228.3,76.43 234.08,67.47 243.32,67.47 233.91,81.88 			"/>
			<path d="M274.34,82.81c0-4.91-1.24-8.74-3.71-11.49c-2.48-2.75-6.1-4.13-10.87-4.13c-2.97,0-5.61,0.64-7.92,1.9
				c-2.31,1.27-4.1,3.05-5.39,5.34c-1.28,2.29-1.92,4.94-1.92,7.94c0,2.97,0.63,5.6,1.9,7.87c1.26,2.27,3.06,4.03,5.39,5.28
				s5.05,1.87,8.16,1.87c2.64,0,5.04-0.45,7.18-1.35c2.15-0.9,3.97-2.19,5.47-3.88l-4.45-4.51c-1.03,1.03-2.18,1.81-3.47,2.34
				c-1.28,0.53-2.62,0.8-4.01,0.8c-1.91,0-3.54-0.52-4.9-1.57c-1.35-1.04-2.27-2.5-2.75-4.37h21.23
				C274.32,84.37,274.34,83.69,274.34,82.81z M252.89,79.84c0.33-1.98,1.11-3.54,2.34-4.7c1.22-1.15,2.76-1.73,4.59-1.73
				c1.94,0,3.5,0.59,4.67,1.76c1.18,1.17,1.8,2.73,1.87,4.67H252.89z"/>
			<path d="M329.72,78.47v18.59h-8.41V80.94c0-1.9-0.52-3.39-1.54-4.45c-1.03-1.06-2.42-1.6-4.18-1.6
				c-2.02,0.04-3.61,0.76-4.79,2.15c-1.17,1.39-1.76,3.19-1.76,5.39v14.63h-8.41V80.94c0-1.87-0.51-3.34-1.51-4.42
				c-1.01-1.08-2.4-1.63-4.16-1.63c-2.01,0.04-3.62,0.76-4.81,2.15s-1.79,3.19-1.79,5.39v14.63h-8.47V67.47h8.47v5.11
				c2.06-3.55,5.39-5.37,10.01-5.44c2.5,0,4.6,0.6,6.33,1.79c1.72,1.19,2.95,2.87,3.68,5.03c0.96-2.24,2.34-3.92,4.16-5.06
				c1.81-1.14,3.98-1.72,6.51-1.76c3.27,0,5.86,1.02,7.79,3.05C328.76,72.23,329.72,74.99,329.72,78.47z"/>
			<path d="M367.31,74.45c-1.15-2.31-2.78-4.09-4.89-5.36c-2.11-1.26-4.54-1.9-7.29-1.9c-1.98,0-3.76,0.4-5.36,1.19
				c-1.6,0.79-2.92,1.93-3.99,3.43v-4.34h-8.47v40.26h8.47V92.77c1.1,1.5,2.45,2.65,4.04,3.44c1.6,0.79,3.42,1.18,5.48,1.18
				c2.75,0,5.16-0.62,7.23-1.87c2.07-1.25,3.68-3,4.81-5.25c1.14-2.26,1.71-4.87,1.71-7.84C369.05,79.42,368.47,76.76,367.31,74.45z
				 M358.43,88.07c-1.35,1.52-3.11,2.28-5.28,2.28c-2.16,0-3.93-0.75-5.31-2.26c-1.37-1.5-2.06-3.48-2.06-5.94
				c0-2.38,0.69-4.33,2.06-5.85c1.38-1.52,3.15-2.29,5.31-2.29c2.17,0,3.93,0.77,5.28,2.29c1.36,1.52,2.04,3.47,2.04,5.85
				C360.47,84.57,359.79,86.55,358.43,88.07z"/>
			<rect x="374.93" y="56.25" width="8.47" height="40.81"/>
			<rect x="391.87" y="67.47" width="8.47" height="29.59"/>
			<path d="M435.71,74.34c-1.32-2.27-3.19-4.03-5.59-5.28c-2.4-1.24-5.16-1.87-8.27-1.87c-3.16,0-5.94,0.63-8.34,1.87
				c-2.4,1.25-4.26,3.01-5.58,5.28c-1.32,2.28-1.98,4.92-1.98,7.92c0,2.97,0.66,5.61,1.98,7.9c1.32,2.29,3.18,4.07,5.58,5.33
				c2.4,1.27,5.18,1.9,8.34,1.9c3.11,0,5.87-0.63,8.27-1.9c2.4-1.26,4.27-3.04,5.59-5.33c1.32-2.29,1.98-4.93,1.98-7.9
				C437.69,79.26,437.03,76.62,435.71,74.34z M427.15,88.26c-1.37,1.5-3.14,2.25-5.3,2.25c-2.2,0-3.99-0.75-5.37-2.25
				c-1.37-1.5-2.06-3.47-2.06-5.89s0.69-4.38,2.06-5.88c1.38-1.5,3.17-2.26,5.37-2.26c2.16,0,3.93,0.76,5.3,2.26
				c1.38,1.5,2.07,3.46,2.07,5.88S428.53,86.76,427.15,88.26z"/>
		</g>
	</g>
</g>
<path class="st1" d="M127.5,36h-49C69.39,36,62,43.39,62,52.5v49c0,9.11,7.39,16.5,16.5,16.5h49c9.11,0,16.5-7.39,16.5-16.5v-49
	C144,43.39,136.61,36,127.5,36z"/>
<path class="st2" d="M112.5,53h-49C54.39,53,47,60.39,47,69.5v49c0,9.11,7.39,16.5,16.5,16.5h49c9.11,0,16.5-7.39,16.5-16.5v-49
	C129,60.39,121.61,53,112.5,53z"/>
</svg>
